<?xml version="1.0" standalone="no"?>
<svg xmlns:xlink="http://www.w3.org/1999/xlink" id="wave" style="transform:rotate(0deg); transition: 0.3s" viewBox="0 0 1440 250" version="1.1" xmlns="http://www.w3.org/2000/svg"><defs><linearGradient id="sw-gradient-0" x1="0" x2="0" y1="1" y2="0"><stop stop-color="rgba(255, 192.438, 192.438, 1)" offset="0%"/><stop stop-color="rgba(255, 0, 0, 1)" offset="100%"/></linearGradient></defs><path style="transform:translate(0, 0px); opacity:1" fill="url(#sw-gradient-0)" d="M0,100L180,150L360,125L540,0L720,125L900,150L1080,225L1260,25L1440,50L1620,225L1800,0L1980,125L2160,0L2340,200L2520,150L2700,50L2880,175L3060,200L3240,125L3420,150L3600,125L3780,175L3960,75L4140,50L4320,150L4320,250L4140,250L3960,250L3780,250L3600,250L3420,250L3240,250L3060,250L2880,250L2700,250L2520,250L2340,250L2160,250L1980,250L1800,250L1620,250L1440,250L1260,250L1080,250L900,250L720,250L540,250L360,250L180,250L0,250Z"/></svg>